<svg width="20" height="16" viewBox="0 0 20 16" fill="none" xmlns="http://www.w3.org/2000/svg">
<g opacity="0.23" clip-path="url(#clip0_42_442)">
<path d="M13.303 8.00018C12.7749 8.00018 12.278 7.71893 12.0092 7.26893L9.99986 3.93768L7.99361 7.26893C7.72173 7.72205 7.22486 8.0033 6.69673 8.0033C6.55611 8.0033 6.41548 7.98455 6.28111 7.94393L1.99986 6.71893V12.2814C1.99986 12.7408 2.31236 13.1408 2.75611 13.2502L9.51236 14.9408C9.83111 15.0189 10.1655 15.0189 10.4811 14.9408L17.2436 13.2502C17.6874 13.1377 17.9999 12.7377 17.9999 12.2814V6.71893L13.7186 7.9408C13.5842 7.98143 13.4436 8.00018 13.303 8.00018ZM19.9467 4.49393L18.3374 1.28143C18.2405 1.08768 18.0311 0.975179 17.8155 1.0033L9.99986 2.00018L12.8655 6.7533C12.9842 6.95018 13.2217 7.04393 13.4436 6.98143L19.628 5.2158C19.9374 5.12518 20.0874 4.78143 19.9467 4.49393V4.49393ZM1.66236 1.28143L0.0529828 4.49393C-0.0907672 4.78143 0.0623578 5.12518 0.368608 5.21268L6.55298 6.9783C6.77486 7.0408 7.01236 6.94705 7.13111 6.75018L9.99986 2.00018L2.18111 1.0033C1.96548 0.978304 1.75923 1.08768 1.66236 1.28143V1.28143Z" fill="#3F4E65"/>
</g>
<defs>
<clipPath id="clip0_42_442">
<rect width="20" height="16" fill="white"/>
</clipPath>
</defs>
</svg>
