<svg width="97" height="41" viewBox="0 0 97 41" fill="none" xmlns="http://www.w3.org/2000/svg">
<g clip-path="url(#clip0_142_1953)">
<path d="M30.1649 15.328C30.1498 13.1119 29.4269 10.9583 28.1015 9.18024C28.0837 9.14327 28.059 9.11006 28.0287 9.08244C27.1429 7.90049 26.0661 6.87394 24.8426 6.04488C24.8106 6.01937 24.7769 5.99603 24.7418 5.97502C22.8452 4.71431 20.7083 3.85809 18.4648 3.46003H18.4368C18.4221 3.45583 18.4066 3.45583 18.392 3.46003C17.832 3.35384 17.2301 3.27839 16.6365 3.22809C16.5917 1.99295 16.3369 1.23006 16.0374 0.755009C15.9458 0.579458 15.819 0.424606 15.6649 0.300089C15.5107 0.175573 15.3326 0.0840598 15.1415 0.03125H15.0659H15.0155C14.8241 0.0841784 14.6456 0.175712 14.491 0.300196C14.3364 0.42468 14.209 0.579469 14.1167 0.755009C13.8144 1.23006 13.5568 1.99574 13.5176 3.23088C7.69693 3.7227 2.85057 6.89998 0.918745 11.1978C0.907734 11.2204 0.898375 11.2438 0.890746 11.2677C0.319444 12.5513 0.0237942 13.9402 0.0228271 15.3448C0.0228271 18.6729 1.64388 21.772 4.59201 24.083C4.38995 25.3835 4.51601 26.7137 4.95878 27.9533C4.26444 30.1888 3.6485 33.042 4.81879 35.4675C4.8193 35.475 4.8193 35.4824 4.81879 35.4899C6.16827 38.2564 8.81123 39.0053 11.3674 39.7262C12.5842 40.0213 13.7687 40.4359 14.9035 40.9642L14.9427 40.981H14.9679C14.9939 40.9837 15.0202 40.9837 15.0463 40.981H15.0883C15.1391 40.9815 15.1892 40.969 15.2338 40.9446C16.3689 40.4105 17.5544 39.9902 18.7727 39.6899C20.2286 39.2791 21.7153 38.8516 22.9723 38.0608L23.0087 38.0356C24.0082 37.4098 24.8099 36.5147 25.3213 35.4536C26.5056 33.0252 25.8813 30.2084 25.2261 28.0259C25.2215 28.0106 25.2139 27.9964 25.2037 27.984C25.8701 26.3688 25.6853 24.6307 25.5985 24.0495C28.5438 21.7496 30.1649 18.6562 30.1649 15.328ZM29.535 15.328C29.5343 16.2321 29.4052 17.1316 29.1514 17.9995C28.7038 17.0885 28.1277 16.2463 27.4407 15.4985C26.1669 14.1012 23.9131 12.3771 20.2566 11.7008C22.6553 10.7866 25.1359 10.1026 27.6647 9.65809C28.8649 11.3074 29.5187 13.2897 29.535 15.328ZM27.2476 9.09641C23.9609 9.68697 20.7624 10.6907 17.7284 12.0837C17.5324 10.4992 16.8269 9.2529 15.8918 8.7974C15.9226 8.68563 15.9478 8.57944 15.973 8.47325C18.7547 7.54055 21.6288 6.90911 24.5458 6.5898C25.5628 7.29091 26.4728 8.13519 27.2476 9.09641ZM23.5827 29.2667L23.4147 29.4148C22.8149 29.8832 22.1094 30.1978 21.3597 30.3313H21.3233H21.2645H21.2477C19.6826 30.6108 17.6556 30.4012 15.189 29.6774H15.1555H15.0323H15.0071C13.8836 30.0201 12.7308 30.2587 11.5634 30.39H11.513C9.32639 30.6024 7.68013 30.2168 6.59663 29.2275C5.33954 28.1321 5.10436 26.4135 5.10436 25.2511C5.63671 26.2514 6.43116 27.0888 7.40296 27.6738C9.01281 28.6239 11.0426 28.7916 13.442 28.2076C13.5971 28.5049 13.8312 28.754 14.1185 28.9275C14.4059 29.1009 14.7356 29.1922 15.0715 29.1912C15.407 29.1923 15.7363 29.1011 16.0233 28.9275C16.3102 28.754 16.5437 28.5049 16.6981 28.2076C19.0975 28.8028 21.1301 28.6239 22.7372 27.6738C23.7103 27.0905 24.5052 26.2527 25.0358 25.2511C25.0582 26.4135 24.823 28.1321 23.5827 29.2667ZM22.1828 37.826C21.0968 38.3618 19.9551 38.7769 18.7783 39.064C18.2415 38.5556 17.7805 37.9731 17.4093 37.3342C16.8493 36.331 17.1293 35.2272 17.5464 34.1821C17.6164 34.0032 17.7004 33.8104 17.79 33.6092C18.1316 32.8352 18.5403 31.9018 18.4004 31.0383C18.8593 31.0936 19.3211 31.1226 19.7834 31.125C20.2475 31.1265 20.7109 31.091 21.1693 31.0188C21.3457 31.5162 21.0937 32.3713 20.8669 33.1398C20.6742 33.6702 20.5582 34.2254 20.5226 34.7885C20.5219 35.3931 20.6735 35.9883 20.9637 36.5191C21.2538 37.0499 21.673 37.4993 22.1828 37.826ZM15.0911 40.341C14.6375 40.0057 13.0668 38.7119 12.7645 36.5965C12.4845 34.6739 13.3104 32.5837 15.1974 30.3789C16.0307 30.6169 16.8778 30.8035 17.734 30.9377C17.958 31.6475 17.5632 32.5445 17.2133 33.341C17.1209 33.5533 17.0341 33.7545 16.9613 33.9418C16.4993 35.1294 16.1662 36.3981 16.8605 37.6304C17.2 38.218 17.6109 38.7614 18.084 39.2484C17.0544 39.5217 16.0518 39.8874 15.0883 40.341H15.0911ZM22.4236 27.1429C20.9173 28.0315 18.9631 28.1657 16.6281 27.5453C16.587 27.5317 16.5435 27.5268 16.5003 27.5309C16.4572 27.5349 16.4153 27.5479 16.3774 27.5689C16.3396 27.5899 16.3065 27.6185 16.2802 27.6529C16.254 27.6873 16.2351 27.7268 16.225 27.7689C16.1423 28.0035 15.9884 28.2066 15.7846 28.3498C15.5809 28.4931 15.3375 28.5694 15.0883 28.5681C14.837 28.57 14.5916 28.4927 14.3869 28.3472C14.1823 28.2016 14.029 27.9953 13.9488 27.7577C13.9381 27.7173 13.9192 27.6795 13.8931 27.6468C13.8671 27.6141 13.8346 27.5872 13.7976 27.5676C13.7575 27.5462 13.7136 27.5332 13.6683 27.5293C13.623 27.5255 13.5775 27.5309 13.5344 27.5453C11.205 28.1629 9.25919 28.0287 7.75012 27.1429C6.56844 26.4146 5.68511 25.2903 5.25835 23.9712C5.51313 23.457 6.76182 21.1209 9.56716 18.4047C9.86673 18.2314 13.6744 16.1524 20.615 18.4214C23.4007 21.1237 24.6718 23.485 24.921 23.974C24.4887 25.2897 23.6027 26.4096 22.4208 27.1345L22.4236 27.1429ZM13.0276 12.9807C13.0276 11.3795 13.6128 9.97107 14.4079 9.4541C14.4944 9.39285 14.5885 9.34307 14.6879 9.30599C14.7867 9.26881 14.8905 9.24622 14.9959 9.23893H15.1135C15.2205 9.24141 15.3264 9.26123 15.427 9.29761C15.5257 9.33024 15.6198 9.37532 15.707 9.43175C16.4153 9.87047 16.9641 11.0134 17.0901 12.3743C17.1119 12.5757 17.1221 12.7781 17.1209 12.9807C17.1209 13.0142 17.1209 13.0505 17.1209 13.0869C17.1161 13.6062 17.0445 14.1227 16.9081 14.6238C16.8485 14.8319 16.7765 15.0363 16.6925 15.2358C16.3146 16.1328 15.7238 16.7224 15.0687 16.7224C14.4135 16.7224 13.8228 16.1356 13.4448 15.2386C13.3544 15.0304 13.2804 14.8155 13.2236 14.5959C13.086 14.0687 13.02 13.5254 13.0276 12.9807ZM13.6912 16.7364C12.744 16.7791 11.8047 16.9291 10.8914 17.1835C11.4934 16.6721 12.1681 16.144 12.9129 15.613C13.1003 16.0324 13.3642 16.4134 13.6912 16.7364ZM16.3761 16.8258C16.7476 16.4875 17.0425 16.0741 17.2413 15.613C18.0812 16.2194 18.8595 16.837 19.5539 17.4434C18.5119 17.1572 17.4496 16.9507 16.3761 16.8258ZM16.1158 7.75787C16.3613 6.6424 16.5241 5.51038 16.6029 4.37101C17.1629 4.26203 17.7368 4.15863 18.3276 4.06362C20.2203 4.40511 22.0368 5.08077 23.6919 6.05886C21.1188 6.38712 18.5822 6.95596 16.1158 7.75787ZM14.6011 1.12108C14.7044 0.919033 14.8651 0.751856 15.0631 0.640436C15.2603 0.752764 15.4208 0.919701 15.525 1.12108C15.7322 1.47038 15.945 2.09075 15.9898 3.16102C15.9898 3.35663 15.9898 3.56622 15.9898 3.79257V3.85684C15.9898 4.06083 15.973 4.27321 15.959 4.50794C15.8575 5.68247 15.6704 6.84805 15.399 7.9954C15.3542 8.19939 15.3094 8.40618 15.259 8.62135C15.1942 8.61125 15.1287 8.60658 15.0631 8.60738C14.9863 8.6087 14.9096 8.6143 14.8335 8.62415C14.8027 8.49281 14.7691 8.36427 14.7411 8.23293C14.4836 7.14224 14.2965 6.03616 14.1811 4.92152C14.1587 4.69796 14.1419 4.48559 14.1335 4.28439C14.1251 4.08319 14.1167 3.94905 14.1139 3.79257C14.1139 3.56622 14.1139 3.35663 14.1139 3.16382C14.1811 2.09075 14.3967 1.47038 14.6011 1.12108ZM13.5036 3.83727C13.5036 4.03009 13.5176 4.23408 13.5316 4.44367C7.78652 6.00296 4.23084 8.30558 2.42221 9.7531C4.63961 6.54229 8.72444 4.25644 13.5036 3.83727ZM1.44509 11.5052C1.66627 11.2677 2.90936 9.98224 5.36474 8.51796C7.93814 7.01262 10.703 5.86025 13.5848 5.09198C13.713 6.22792 13.9093 7.35518 14.1727 8.46766C11.0649 9.65633 8.19556 11.3911 5.70071 13.5899C3.18094 15.8701 1.89865 17.9939 1.3807 19.0167C0.8781 17.8267 0.624784 16.5467 0.63634 15.2554C0.647895 13.9641 0.92408 12.6888 1.4479 11.508L1.44509 11.5052ZM1.72507 19.7544C2.11703 18.8714 4.92518 13.1344 13.5064 9.41497C12.8317 10.203 12.4005 11.4912 12.4005 12.9779C12.3939 13.6532 12.4882 14.3256 12.6805 14.9731C7.69693 18.4773 5.42633 22.2694 4.80199 23.4459C3.53038 22.4415 2.48166 21.1845 1.72227 19.7544H1.72507ZM5.36474 28.7581C5.5878 29.115 5.85703 29.441 6.16547 29.7277C6.68926 30.2006 7.30901 30.5551 7.9825 30.7673C7.32343 30.9755 6.71771 31.3245 6.20747 31.79C5.58413 32.3891 5.15089 33.1577 4.96158 34.0004C4.54442 32.2735 4.88879 30.39 5.35074 28.7581H5.36474ZM5.42633 35.2663C5.60552 31.0411 9.56716 31.1054 9.74074 31.111C9.77031 31.112 9.79979 31.1073 9.82753 31.097C10.0375 31.097 10.2531 31.1138 10.4715 31.097C9.1724 32.1198 8.38567 33.3046 8.13369 34.632C7.92929 35.8281 8.11065 37.058 8.65165 38.1446C7.30777 37.5717 6.15427 36.7418 5.41234 35.2663H5.42633ZM9.58396 38.5107C9.35158 38.1558 8.41087 36.5797 8.76363 34.7549C9.04361 33.3382 10.0151 32.0891 11.6698 31.0411C12.5315 30.9486 13.385 30.7917 14.2231 30.5717C12.5685 32.7038 11.8657 34.7633 12.1457 36.6859C12.317 37.8031 12.7958 38.8508 13.5288 39.7123C12.8709 39.4831 12.1989 39.2931 11.5382 39.1059C10.8774 38.9187 10.2027 38.7286 9.58396 38.5107ZM22.8072 37.4404C22.3118 37.1895 21.8957 36.8065 21.6051 36.334C21.3145 35.8614 21.1608 35.3178 21.1609 34.7633C21.2014 34.2662 21.3078 33.7766 21.4773 33.3074C21.7349 32.4467 21.9952 31.5609 21.8021 30.8846C22.3219 30.7585 22.8201 30.556 23.2803 30.2838C23.2803 32.6954 24.6102 33.7322 25.1645 34.0619C25.07 34.4561 24.9339 34.8392 24.7586 35.2048C24.3173 36.1123 23.6393 36.8845 22.796 37.4404H22.8072ZM25.2961 33.3913C24.7502 32.9917 23.7871 31.9717 23.9327 29.806L24.0223 29.7277C24.3203 29.4547 24.5811 29.1437 24.7978 28.8028C25.1841 30.2168 25.5005 31.8376 25.2849 33.3913H25.2961ZM25.3661 23.4542C24.753 22.2973 22.4908 18.5193 17.482 15.0011C17.6845 14.3469 17.7846 13.6654 17.7788 12.9807C17.7788 12.9136 17.7788 12.8438 17.7788 12.7795C18.2184 12.5671 18.6719 12.3603 19.1395 12.1675C23.2187 12.6537 25.6461 14.4617 26.9648 15.9009C27.7763 16.7678 28.4174 17.7792 28.8546 18.8825C28.1012 20.6814 26.8958 22.256 25.3549 23.4542H25.3661Z" fill="white"/>
<path d="M10.8995 22.3555C9.96714 22.3555 9.13281 22.7635 8.81924 23.3726C8.78194 23.4469 8.77542 23.5327 8.80109 23.6117C8.82677 23.6907 8.88258 23.7564 8.95643 23.7946C9.00084 23.8165 9.04968 23.828 9.09922 23.8281C9.1571 23.8283 9.2139 23.8124 9.26331 23.7823C9.31273 23.7523 9.35283 23.7091 9.37919 23.6577C9.58357 23.2609 10.2191 22.9814 10.8995 22.9814C11.5798 22.9814 12.2153 23.2609 12.4225 23.6577C12.4412 23.6944 12.467 23.7272 12.4984 23.754C12.5297 23.7807 12.5661 23.8011 12.6054 23.8138C12.6447 23.8265 12.6861 23.8314 12.7273 23.8281C12.7684 23.8248 12.8085 23.8134 12.8453 23.7946C12.9199 23.7564 12.9762 23.6902 13.0019 23.6106C13.0277 23.5309 13.0207 23.4443 12.9825 23.3698C12.6633 22.7634 11.8234 22.3555 10.8995 22.3555Z" fill="white"/>
<path d="M19.2622 22.3555C18.3299 22.3555 17.4928 22.7635 17.182 23.3726C17.1628 23.4092 17.1511 23.4493 17.1476 23.4905C17.1441 23.5317 17.1489 23.5731 17.1617 23.6124C17.1744 23.6517 17.195 23.6881 17.222 23.7194C17.2491 23.7507 17.2821 23.7762 17.3192 23.7946C17.3636 23.8165 17.4125 23.828 17.462 23.8281C17.5199 23.8283 17.5767 23.8124 17.6261 23.7823C17.6755 23.7523 17.7156 23.7091 17.742 23.6577C17.9464 23.2609 18.5819 22.9814 19.2622 22.9814C19.9426 22.9814 20.5781 23.2609 20.7853 23.6577C20.804 23.6944 20.8298 23.7272 20.8611 23.754C20.8925 23.7807 20.9289 23.8011 20.9682 23.8138C21.0075 23.8265 21.0489 23.8314 21.09 23.8281C21.1312 23.8248 21.1713 23.8134 21.2081 23.7946C21.2821 23.7558 21.338 23.6896 21.3636 23.6102C21.3893 23.5308 21.3827 23.4445 21.3453 23.3698C21.0289 22.7634 20.1918 22.3555 19.2622 22.3555Z" fill="white"/>
<path d="M39.7145 18.0635C41.7611 18.0635 43.9785 19.1813 44.3592 21.8108H41.8759C41.5231 20.8104 40.7728 20.3577 39.7145 20.3577C38.2334 20.3577 37.2591 21.4755 37.2591 23.1046C37.2591 24.5578 38.2194 25.8236 39.7145 25.8404C40.7896 25.8404 41.6491 25.3039 41.9179 24.2476H44.4012C44.0345 27.042 41.8199 28.1346 39.7145 28.1346C37.1947 28.1486 34.6609 26.458 34.6469 23.1046C34.6329 19.7513 37.2031 18.0635 39.7145 18.0635Z" fill="white"/>
<path d="M48.3544 27.7653L49.8998 24.5852L46.5765 18.5436V18.1636H49.3987L51.2633 21.7963H51.3333L53.0272 18.1636H55.7793V18.5436L51.0785 28.0447H48.3544V27.7653Z" fill="white"/>
<path d="M58.8871 28.0449H56.4149V27.6789L60.8609 18.0576H61.9388L66.4184 27.6705V28.0449H63.9462L61.4069 22.2688L58.8871 28.0449Z" fill="white"/>
<path d="M67.569 20.4299V18.1748H74.9071V20.4299H72.4937V28.0448H69.9964V20.4299H67.569Z" fill="white"/>
<path d="M83.0097 26.7958H79.1152L78.5357 28.0449H76.0663V27.6789L80.5123 18.0576H81.5986L86.0586 27.6789V28.0449H83.5892L83.0097 26.7958ZM81.0498 22.0453L79.9299 24.6385H82.1893L81.0498 22.0453Z" fill="white"/>
<path d="M97.0001 28.0448H94.4159V24.0767H91.367V28.0448H88.7856V18.1748H91.367V21.7517H94.4159V18.1748H97.0001V28.0448Z" fill="white"/>
</g>
<defs>
<clipPath id="clip0_142_1953">
<rect width="97" height="41" fill="white"/>
</clipPath>
</defs>
</svg>
