<svg width="16" height="18" viewBox="0 0 16 18" fill="none" xmlns="http://www.w3.org/2000/svg">
<path d="M8 9.8335C9.38071 9.8335 10.5 8.71421 10.5 7.3335C10.5 5.95278 9.38071 4.8335 8 4.8335C6.61929 4.8335 5.5 5.95278 5.5 7.3335C5.5 8.71421 6.61929 9.8335 8 9.8335Z" stroke="#3F4E65" stroke-width="1.3" stroke-linecap="round" stroke-linejoin="round"/>
<path d="M7.99992 0.666748C6.23181 0.666748 4.53612 1.36913 3.28587 2.61937C2.03563 3.86961 1.33325 5.5653 1.33325 7.33342C1.33325 8.91008 1.66825 9.94175 2.58325 11.0834L7.99992 17.3334L13.4166 11.0834C14.3316 9.94175 14.6666 8.91008 14.6666 7.33342C14.6666 5.5653 13.9642 3.86961 12.714 2.61937C11.4637 1.36913 9.76803 0.666748 7.99992 0.666748V0.666748Z" stroke="#3F4E65" stroke-width="1.3" stroke-linecap="round" stroke-linejoin="round"/>
</svg>
