<svg width="20" height="21" viewBox="0 0 20 21" fill="none" xmlns="http://www.w3.org/2000/svg">
<path d="M4.00004 13.5C4.87469 13.4974 5.71626 13.1653 6.35704 12.57L12.617 16.147C12.4073 16.9666 12.4998 17.8343 12.8775 18.5913C13.2552 19.3483 13.893 19.9439 14.674 20.2692C15.455 20.5944 16.327 20.6274 17.1304 20.3623C17.9338 20.0971 18.6148 19.5515 19.0488 18.8252C19.4827 18.099 19.6406 17.2408 19.4935 16.4076C19.3464 15.5745 18.9042 14.8222 18.2478 14.2885C17.5914 13.7548 16.7647 13.4753 15.919 13.5013C15.0734 13.5273 14.2655 13.857 13.643 14.43L7.38304 10.853C7.44904 10.603 7.48504 10.344 7.49104 10.085L13.641 6.56996C14.2332 7.10874 14.9927 7.42747 15.792 7.47268C16.5913 7.51789 17.3818 7.28684 18.031 6.81828C18.6802 6.34972 19.1484 5.67217 19.3572 4.89929C19.5661 4.1264 19.5027 3.30522 19.1779 2.5735C18.853 1.84178 18.2864 1.24404 17.5731 0.88056C16.8597 0.517083 16.0431 0.409982 15.2602 0.577226C14.4772 0.744469 13.7756 1.17588 13.2731 1.79909C12.7705 2.42229 12.4976 3.19937 12.5 3.99996C12.504 4.28796 12.543 4.57497 12.617 4.85296L6.93304 8.09997C6.60341 7.59003 6.1468 7.17461 5.60805 6.89454C5.06931 6.61446 4.46697 6.47936 3.86021 6.50251C3.25346 6.52566 2.66316 6.70627 2.14732 7.02658C1.63148 7.34689 1.20785 7.79589 0.918041 8.32946C0.628232 8.86303 0.48222 9.46282 0.494351 10.0699C0.506482 10.677 0.676338 11.2704 0.98723 11.792C1.29812 12.3136 1.73936 12.7453 2.26758 13.0447C2.7958 13.3442 3.39284 13.5011 4.00004 13.5Z" fill="#FFC85E"/>
</svg>
