<svg width="18" height="14" viewBox="0 0 18 14" fill="none" xmlns="http://www.w3.org/2000/svg">
<path d="M3.37496 0.333252H14.625C15.3167 0.333207 15.9823 0.59788 16.4852 1.07298C16.988 1.54808 17.29 2.19758 17.3291 2.88825L17.3333 3.04158V10.9583C17.3333 11.65 17.0687 12.3156 16.5936 12.8184C16.1185 13.3213 15.469 13.6233 14.7783 13.6624L14.625 13.6666H3.37496C2.68318 13.6666 2.0176 13.402 1.51477 12.9269C1.01193 12.4518 0.709958 11.8023 0.670793 11.1116L0.666626 10.9583V3.04158C0.666581 2.3498 0.931254 1.68423 1.40635 1.18139C1.88145 0.678558 2.53095 0.376584 3.22163 0.337419L3.37496 0.333252H14.625H3.37496ZM16.0833 4.81075L9.29163 8.38575C9.21494 8.42626 9.13066 8.45037 9.04415 8.45654C8.95763 8.46271 8.87079 8.4508 8.78913 8.42159L8.70913 8.38658L1.91663 4.81158V10.9583C1.91664 11.3242 2.05427 11.6768 2.30219 11.9461C2.55012 12.2153 2.89021 12.3815 3.25496 12.4116L3.37496 12.4166H14.625C14.9911 12.4166 15.3438 12.2788 15.6131 12.0307C15.8823 11.7826 16.0484 11.4423 16.0783 11.0774L16.0833 10.9583V4.81075ZM14.625 1.58325H3.37496C3.00897 1.58327 2.65636 1.72089 2.38713 1.96882C2.11791 2.21674 1.95174 2.55683 1.92163 2.92159L1.91663 3.04158V3.39908L8.99996 7.12659L16.0833 3.39825V3.04158C16.0833 2.67546 15.9455 2.32274 15.6974 2.0535C15.4493 1.78425 15.109 1.61817 14.7441 1.58825L14.625 1.58325Z" fill="#3F4E65"/>
</svg>
