<svg width="16" height="16" viewBox="0 0 16 16" fill="none" xmlns="http://www.w3.org/2000/svg">
<path d="M1.20194 2.15157L1.22602 2.13652L4.27031 0.636719L7.55612 5.01779L6.0444 7.03354C6.08963 7.79373 6.41201 8.51095 6.9505 9.04944C7.48899 9.58792 8.20622 9.91029 8.96641 9.95552L10.9821 8.4438L15.3632 11.7295L13.8758 14.7484L13.8633 14.7739L13.8482 14.7979C13.7689 14.9258 13.6581 15.0312 13.5264 15.1042C13.3948 15.1772 13.2467 15.2152 13.0961 15.2148H12.3106C10.7971 15.2148 9.29833 14.9166 7.89999 14.3374C6.50165 13.7582 5.23109 12.9092 4.16085 11.839C3.09061 10.7688 2.24165 9.49819 1.66244 8.09985C1.08324 6.70151 0.785123 5.20278 0.785128 3.68923V2.90366C0.784646 2.75315 0.822697 2.60502 0.895657 2.47337C0.968616 2.34172 1.07406 2.23094 1.20194 2.15157ZM1.91013 3.68923C1.91013 9.42409 6.57578 14.0898 12.3106 14.0898H12.9462L13.9414 12.0696L10.9819 9.84998L9.33425 11.0857H9.14676C8.02453 11.0844 6.94863 10.6381 6.1551 9.84453C5.36156 9.051 4.91521 7.9751 4.91395 6.85287V6.66538L6.14966 5.01775L3.93031 2.05847L1.91013 3.05378V3.68923Z" fill="#3F4E65"/>
</svg>
