<svg width="39" height="39" viewBox="0 0 39 39" fill="none" xmlns="http://www.w3.org/2000/svg">
<g clip-path="url(#clip0_81_20)">
<path d="M19.5 0C8.73036 0 0 8.73036 0 19.5C0 30.2696 8.73036 39 19.5 39C30.2696 39 39 30.2696 39 19.5C39 8.73036 30.2696 0 19.5 0Z" fill="#40B3E0"/>
<path d="M28.9884 11.2169L25.5054 28.7774C25.5054 28.7774 25.0183 29.9953 23.6788 29.4107L15.6414 23.2487L12.7188 21.8362L7.79905 20.1799C7.79905 20.1799 7.04404 19.9121 6.97091 19.3275C6.89779 18.743 7.82343 18.4264 7.82343 18.4264L27.3807 10.7544C27.3807 10.7544 28.9882 10.0481 28.9882 11.2172" fill="white"/>
<path d="M15.0237 28.5799C15.0237 28.5799 14.7891 28.558 14.4966 27.6324C14.2046 26.7069 12.7188 21.8358 12.7188 21.8358L24.5312 14.3344C24.5312 14.3344 25.2132 13.9204 25.1888 14.3344C25.1888 14.3344 25.3106 14.4075 24.9451 14.7485C24.5799 15.0896 15.6658 23.1024 15.6658 23.1024" fill="#D2E5F1"/>
<path d="M18.7233 25.6112L15.5443 28.5097C15.5443 28.5097 15.2957 28.6983 15.0239 28.5801L15.6327 23.1963" fill="#B5CFE4"/>
</g>
<defs>
<clipPath id="clip0_81_20">
<rect width="39" height="39" fill="white"/>
</clipPath>
</defs>
</svg>
