<svg width="23" height="17" viewBox="0 0 23 17" fill="none" xmlns="http://www.w3.org/2000/svg">
<path d="M22.6366 3.49241C22.4954 3.29518 22.3059 3.19656 22.0682 3.19656H6.9325L6.52171 2.12711C6.41768 1.77648 6.2765 1.47698 6.09818 1.22862C5.91985 0.980253 5.73037 0.804938 5.52975 0.702671C5.32913 0.600403 5.15452 0.531007 5.00591 0.494483C4.8573 0.457959 4.7087 0.439697 4.56009 0.439697H1.50621C1.31302 0.439697 1.14955 0.505441 1.01581 0.636927C0.882059 0.768414 0.815186 0.936425 0.815186 1.14096C0.815186 1.25784 0.844907 1.37106 0.90435 1.48063C0.963793 1.59021 1.04924 1.67421 1.1607 1.73265C1.27215 1.79109 1.38732 1.82031 1.50621 1.82031H4.56009C4.61953 1.82031 4.67526 1.82761 4.72727 1.84222C4.77929 1.85683 4.84987 1.91892 4.93904 2.02849C5.0282 2.13807 5.10251 2.30242 5.16195 2.52157L8.35913 11.3005C8.38885 11.3882 8.43715 11.4722 8.50402 11.5525C8.5709 11.6329 8.64891 11.695 8.73808 11.7388C8.82724 11.7826 8.92384 11.8045 9.02786 11.8045H18.6576C18.8062 11.8045 18.9437 11.7607 19.07 11.673C19.1963 11.5854 19.2818 11.4758 19.3263 11.3443L22.7369 4.13888C22.8112 3.90513 22.7778 3.68964 22.6366 3.49241ZM18.1672 10.402H9.58514L7.31145 4.59908H21.0428L18.1672 10.402ZM16.8818 12.565C16.3914 12.565 15.9715 12.7367 15.6223 13.08C15.2731 13.4234 15.0985 13.8361 15.0985 14.3182C15.0985 14.8003 15.2731 15.2131 15.6223 15.5564C15.9715 15.8997 16.3914 16.0714 16.8818 16.0714C17.3722 16.0714 17.792 15.8997 18.1412 15.5564C18.4904 15.2131 18.665 14.8003 18.665 14.3182C18.665 13.8361 18.4904 13.4234 18.1412 13.08C17.792 12.7367 17.3722 12.565 16.8818 12.565ZM10.4619 12.565C10.135 12.565 9.83406 12.6454 9.55913 12.8061C9.28421 12.9668 9.06873 13.1787 8.91269 13.4416C8.75665 13.7046 8.67864 13.9968 8.67864 14.3182C8.67864 14.8003 8.85325 15.2131 9.20248 15.5564C9.5517 15.8997 9.97152 16.0714 10.4619 16.0714C10.9523 16.0714 11.3721 15.8997 11.7214 15.5564C12.0706 15.2131 12.2452 14.8003 12.2452 14.3182C12.2452 14.2013 12.2341 14.0845 12.2118 13.9676C12.1895 13.8507 12.156 13.7411 12.1115 13.6389C12.0669 13.5366 12.0112 13.438 11.9443 13.343C11.8774 13.2481 11.8031 13.1604 11.7214 13.08C11.6396 12.9997 11.5505 12.9266 11.4539 12.8609C11.3573 12.7951 11.257 12.7404 11.1529 12.6965C11.0489 12.6527 10.9375 12.6198 10.8186 12.5979C10.6997 12.576 10.5808 12.565 10.4619 12.565Z" fill="#3F4E65"/>
</svg>
