<svg width="10" height="10" viewBox="0 0 10 10" fill="none" xmlns="http://www.w3.org/2000/svg">
<path d="M6.35314 6.71251L7.05314 6.01251C7.14742 5.9194 7.2667 5.85566 7.39651 5.82904C7.52632 5.80241 7.66106 5.81404 7.78439 5.86251L8.63751 6.20314C8.76214 6.25372 8.869 6.34007 8.94463 6.45129C9.02027 6.56252 9.06128 6.69364 9.06251 6.82814V8.39064C9.06179 8.48213 9.04255 8.57253 9.00597 8.6564C8.96939 8.74026 8.91621 8.81585 8.84964 8.87863C8.78308 8.9414 8.70449 8.99005 8.61863 9.02165C8.53276 9.05325 8.44139 9.06715 8.35001 9.06251C2.37189 8.69064 1.16564 3.62814 0.937511 1.69064C0.926922 1.59549 0.936597 1.49918 0.965901 1.40805C0.995206 1.31691 1.04347 1.23301 1.10753 1.16187C1.17159 1.09073 1.24999 1.03395 1.33756 0.995283C1.42514 0.956614 1.51991 0.936925 1.61564 0.937513H3.12501C3.2597 0.937911 3.39119 0.978596 3.50257 1.05433C3.61395 1.13007 3.70013 1.2374 3.75001 1.36251L4.09064 2.21564C4.14072 2.33847 4.15349 2.47334 4.12737 2.60339C4.10125 2.73344 4.03739 2.85292 3.94376 2.94689L3.24376 3.64689C3.24376 3.64689 3.64689 6.37501 6.35314 6.71251Z" fill="white"/>
</svg>
