<svg width="25" height="18" viewBox="0 0 25 18" fill="none" xmlns="http://www.w3.org/2000/svg">
<path d="M24.4475 4.09234C24.295 3.87933 24.0904 3.77282 23.8336 3.77282H7.48707L7.04341 2.61782C6.93107 2.23913 6.7786 1.91568 6.586 1.64744C6.39341 1.37921 6.18877 1.18987 5.9721 1.07942C5.75543 0.968973 5.56685 0.894025 5.40636 0.854579C5.24586 0.815133 5.08536 0.79541 4.92487 0.79541H1.62668C1.41803 0.79541 1.24149 0.866413 1.09704 1.00842C0.952594 1.15042 0.880371 1.33188 0.880371 1.55277C0.880371 1.679 0.91247 1.80128 0.976669 1.91962C1.04087 2.03796 1.13315 2.12869 1.25352 2.1918C1.3739 2.25491 1.49828 2.28647 1.62668 2.28647H4.92487C4.98907 2.28647 5.04925 2.29436 5.10543 2.31014C5.1616 2.32592 5.23784 2.39297 5.33413 2.51131C5.43043 2.62965 5.51068 2.80716 5.57488 3.04383L9.02783 12.5251C9.05993 12.6197 9.11209 12.7105 9.18432 12.7973C9.25654 12.884 9.3408 12.9511 9.4371 12.9984C9.53339 13.0458 9.63772 13.0694 9.75006 13.0694H20.1502C20.3107 13.0694 20.4592 13.0221 20.5956 12.9274C20.732 12.8328 20.8243 12.7144 20.8724 12.5724L24.5558 4.79053C24.6361 4.53808 24.5999 4.30534 24.4475 4.09234ZM19.6206 11.5547H10.3519L7.89634 5.28755H22.7262L19.6206 11.5547ZM18.2323 13.8908C17.7026 13.8908 17.2492 14.0762 16.8721 14.447C16.4949 14.8178 16.3063 15.2635 16.3063 15.7842C16.3063 16.3049 16.4949 16.7506 16.8721 17.1214C17.2492 17.4922 17.7026 17.6776 18.2323 17.6776C18.7619 17.6776 19.2153 17.4922 19.5925 17.1214C19.9696 16.7506 20.1582 16.3049 20.1582 15.7842C20.1582 15.2635 19.9696 14.8178 19.5925 14.447C19.2153 14.0762 18.7619 13.8908 18.2323 13.8908ZM11.2988 13.8908C10.9458 13.8908 10.6208 13.9776 10.3238 14.1511C10.0269 14.3247 9.7942 14.5535 9.62568 14.8375C9.45716 15.1215 9.3729 15.4371 9.3729 15.7842C9.3729 16.3049 9.56148 16.7506 9.93865 17.1214C10.3158 17.4922 10.7692 17.6776 11.2988 17.6776C11.8285 17.6776 12.2819 17.4922 12.6591 17.1214C13.0362 16.7506 13.2248 16.3049 13.2248 15.7842C13.2248 15.658 13.2128 15.5318 13.1887 15.4055C13.1646 15.2793 13.1285 15.161 13.0804 15.0505C13.0322 14.9401 12.972 14.8336 12.8998 14.731C12.8276 14.6284 12.7473 14.5338 12.6591 14.447C12.5708 14.3602 12.4745 14.2813 12.3702 14.2103C12.2658 14.1393 12.1575 14.0801 12.0452 14.0328C11.9328 13.9855 11.8124 13.95 11.684 13.9263C11.5556 13.9026 11.4272 13.8908 11.2988 13.8908Z" fill="white"/>
</svg>
