<svg width="15" height="15" viewBox="0 0 15 15" fill="none" xmlns="http://www.w3.org/2000/svg">
<path d="M0.5 2C0.5 1.17157 1.17157 0.5 2 0.5H6C6.27614 0.5 6.5 0.723858 6.5 1V6C6.5 6.27614 6.27614 6.5 6 6.5H1C0.723858 6.5 0.5 6.27614 0.5 6V2Z" stroke="white"/>
<path d="M8.5 1C8.5 0.723858 8.72386 0.5 9 0.5H13C13.8284 0.5 14.5 1.17157 14.5 2V6C14.5 6.27614 14.2761 6.5 14 6.5H9C8.72386 6.5 8.5 6.27614 8.5 6V1Z" stroke="white"/>
<path d="M8.5 9C8.5 8.72386 8.72386 8.5 9 8.5H14C14.2761 8.5 14.5 8.72386 14.5 9V13C14.5 13.8284 13.8284 14.5 13 14.5H9C8.72386 14.5 8.5 14.2761 8.5 14V9Z" stroke="white"/>
<path d="M0.5 9C0.5 8.72386 0.723858 8.5 1 8.5H6C6.27614 8.5 6.5 8.72386 6.5 9V14C6.5 14.2761 6.27614 14.5 6 14.5H2C1.17157 14.5 0.5 13.8284 0.5 13V9Z" stroke="white"/>
</svg>
