<svg width="61" height="39" viewBox="0 0 61 39" fill="none" xmlns="http://www.w3.org/2000/svg">
<rect width="60.9375" height="39" rx="3" fill="#0F3560"/>
<path d="M35.5658 29.12H24.8633V9.88574H35.5658V29.12Z" fill="#FF5F00"/>
<path d="M25.5488 19.5013C25.5488 15.5995 27.3757 12.124 30.2205 9.88416C28.1402 8.2463 25.5146 7.26873 22.6612 7.26873C15.906 7.26873 10.4302 12.7454 10.4302 19.5013C10.4302 26.2573 15.906 31.7339 22.6612 31.7339C25.5146 31.7339 28.1402 30.7563 30.2205 29.1185C27.3757 26.8787 25.5488 23.4031 25.5488 19.5013Z" fill="#EB001B"/>
<path d="M50.0001 19.5013C50.0001 26.2573 44.5243 31.7339 37.7691 31.7339C34.9157 31.7339 32.2901 30.7563 30.209 29.1185C33.0546 26.8787 34.8815 23.4031 34.8815 19.5013C34.8815 15.5995 33.0546 12.124 30.209 9.88416C32.2901 8.2463 34.9157 7.26873 37.7691 7.26873C44.5243 7.26873 50.0001 12.7454 50.0001 19.5013Z" fill="#F79E1B"/>
<path d="M19.6338 19.5789C19.6338 19.0446 19.9839 18.6056 20.5561 18.6056C21.1028 18.6056 21.4718 19.0257 21.4718 19.5789C21.4718 20.1321 21.1028 20.5522 20.5561 20.5522C19.9839 20.5522 19.6338 20.1132 19.6338 19.5789ZM22.095 19.5789V18.0589H21.434V18.428C21.2243 18.1543 20.9062 17.9825 20.4738 17.9825C19.6214 17.9825 18.9531 18.6508 18.9531 19.5789C18.9531 20.5078 19.6214 21.1753 20.4738 21.1753C20.9062 21.1753 21.2243 21.0035 21.434 20.7298V21.0989H22.095V19.5789ZM44.4314 19.5789C44.4314 19.0446 44.7815 18.6056 45.3537 18.6056C45.9011 18.6056 46.2695 19.0257 46.2695 19.5789C46.2695 20.1321 45.9011 20.5522 45.3537 20.5522C44.7815 20.5522 44.4314 20.1132 44.4314 19.5789ZM46.8933 19.5789V16.8382H46.2316V18.428C46.022 18.1543 45.7039 17.9825 45.2715 17.9825C44.419 17.9825 43.7508 18.6508 43.7508 19.5789C43.7508 20.5078 44.419 21.1753 45.2715 21.1753C45.7039 21.1753 46.022 21.0035 46.2316 20.7298V21.0989H46.8933V19.5789ZM30.2997 18.5743C30.7255 18.5743 30.9993 18.8415 31.0691 19.3117H29.4917C29.5623 18.8728 29.8287 18.5743 30.2997 18.5743ZM30.3128 17.9825C29.4218 17.9825 28.7987 18.6311 28.7987 19.5789C28.7987 20.5456 29.4473 21.1753 30.3572 21.1753C30.8151 21.1753 31.2344 21.061 31.6035 20.7494L31.2795 20.2595C31.0247 20.4626 30.7001 20.5776 30.3951 20.5776C29.9692 20.5776 29.5812 20.3804 29.4858 19.833H31.7432C31.7498 19.7507 31.7563 19.6677 31.7563 19.5789C31.7498 18.6311 31.1645 17.9825 30.3128 17.9825ZM38.294 19.5789C38.294 19.0446 38.6442 18.6056 39.2164 18.6056C39.7631 18.6056 40.1321 19.0257 40.1321 19.5789C40.1321 20.1321 39.7631 20.5522 39.2164 20.5522C38.6442 20.5522 38.294 20.1132 38.294 19.5789ZM40.7552 19.5789V18.0589H40.0943V18.428C39.8839 18.1543 39.5665 17.9825 39.1341 17.9825C38.2817 17.9825 37.6134 18.6508 37.6134 19.5789C37.6134 20.5078 38.2817 21.1753 39.1341 21.1753C39.5665 21.1753 39.8839 21.0035 40.0943 20.7298V21.0989H40.7552V19.5789ZM34.5611 19.5789C34.5611 20.5012 35.2032 21.1753 36.183 21.1753C36.6409 21.1753 36.9459 21.0734 37.2764 20.8128L36.959 20.2785C36.7108 20.4568 36.4501 20.5522 36.1633 20.5522C35.6356 20.5456 35.2476 20.1642 35.2476 19.5789C35.2476 18.9936 35.6356 18.6122 36.1633 18.6056C36.4501 18.6056 36.7108 18.701 36.959 18.8793L37.2764 18.345C36.9459 18.0844 36.6409 17.9825 36.183 17.9825C35.2032 17.9825 34.5611 18.6566 34.5611 19.5789ZM43.0832 17.9825C42.7018 17.9825 42.4536 18.1608 42.2818 18.428V18.0589H41.6266V21.0989H42.2883V19.3947C42.2883 18.8917 42.5045 18.6122 42.9369 18.6122C43.0709 18.6122 43.2106 18.6311 43.3504 18.6886L43.5542 18.0655C43.4079 18.008 43.2172 17.9825 43.0832 17.9825ZM25.3642 18.3006C25.0461 18.091 24.6078 17.9825 24.1245 17.9825C23.3543 17.9825 22.8586 18.3516 22.8586 18.9558C22.8586 19.4515 23.2277 19.7572 23.9076 19.8526L24.2198 19.897C24.5824 19.948 24.7534 20.0433 24.7534 20.2151C24.7534 20.4503 24.5118 20.5842 24.0604 20.5842C23.6025 20.5842 23.2721 20.4379 23.0493 20.2661L22.7377 20.7807C23.1003 21.0479 23.5581 21.1753 24.0539 21.1753C24.9318 21.1753 25.4406 20.7618 25.4406 20.1831C25.4406 19.6488 25.0402 19.3692 24.3785 19.2739L24.067 19.2288C23.7809 19.1909 23.5516 19.1341 23.5516 18.9303C23.5516 18.7075 23.7678 18.5743 24.1303 18.5743C24.5183 18.5743 24.8939 18.7206 25.0781 18.8349L25.3642 18.3006ZM33.8929 17.9825C33.5114 17.9825 33.2632 18.1608 33.0921 18.428V18.0589H32.437V21.0989H33.0979V19.3947C33.0979 18.8917 33.3141 18.6122 33.7465 18.6122C33.8805 18.6122 34.0202 18.6311 34.16 18.6886L34.3638 18.0655C34.2175 18.008 34.0268 17.9825 33.8929 17.9825ZM28.252 18.0589H27.171V17.1366H26.5027V18.0589H25.8861V18.6631H26.5027V20.0499C26.5027 20.7553 26.7764 21.1753 27.5582 21.1753C27.845 21.1753 28.1755 21.0865 28.3852 20.9402L28.1945 20.3738C27.9972 20.4881 27.781 20.5456 27.6092 20.5456C27.2787 20.5456 27.171 20.3418 27.171 20.0368V18.6631H28.252V18.0589ZM18.3686 21.0989V19.1909C18.3686 18.4724 17.9107 17.9891 17.1726 17.9825C16.7846 17.9759 16.3842 18.0968 16.1039 18.5234C15.8943 18.1863 15.5638 17.9825 15.0994 17.9825C14.7747 17.9825 14.4573 18.0779 14.2091 18.4338V18.0589H13.5474V21.0989H14.2149V19.4137C14.2149 18.8859 14.5075 18.6056 14.9596 18.6056C15.3985 18.6056 15.6206 18.8917 15.6206 19.4071V21.0989H16.2888V19.4137C16.2888 18.8859 16.5938 18.6056 17.0328 18.6056C17.4841 18.6056 17.7003 18.8917 17.7003 19.4071V21.0989H18.3686Z" fill="white"/>
</svg>
