<svg width="97" height="41" viewBox="0 0 97 41" fill="none" xmlns="http://www.w3.org/2000/svg">
<g clip-path="url(#clip0_144_4982)">
<path d="M30.1649 15.3278C30.1498 13.1116 29.4269 10.958 28.1015 9.18C28.0837 9.14302 28.059 9.10982 28.0287 9.0822C27.1429 7.90025 26.0661 6.8737 24.8426 6.04464C24.8106 6.01913 24.7769 5.99579 24.7418 5.97478C22.8452 4.71406 20.7083 3.85785 18.4648 3.45978H18.4368C18.4221 3.45559 18.4066 3.45559 18.392 3.45978C17.832 3.35359 17.2301 3.27814 16.6365 3.22784C16.5917 1.9927 16.3369 1.22982 16.0374 0.754764C15.9458 0.579214 15.819 0.424362 15.6649 0.299845C15.5107 0.175329 15.3326 0.0838157 15.1415 0.0310059H15.0659H15.0155C14.8241 0.0839343 14.6456 0.175468 14.491 0.299952C14.3364 0.424435 14.209 0.579225 14.1167 0.754764C13.8144 1.22982 13.5568 1.9955 13.5176 3.23064C7.69693 3.72246 2.85057 6.89973 0.918745 11.1976C0.907734 11.2202 0.898375 11.2435 0.890746 11.2674C0.319444 12.5511 0.0237942 13.9399 0.0228271 15.3445C0.0228271 18.6727 1.64388 21.7717 4.59201 24.0827C4.38995 25.3832 4.51601 26.7134 4.95878 27.953C4.26444 30.1886 3.6485 33.0417 4.81879 35.4673C4.8193 35.4747 4.8193 35.4822 4.81879 35.4896C6.16827 38.2561 8.81123 39.005 11.3674 39.726C12.5842 40.021 13.7687 40.4357 14.9035 40.9639L14.9427 40.9807H14.9679C14.9939 40.9834 15.0202 40.9834 15.0463 40.9807H15.0883C15.1391 40.9813 15.1892 40.9687 15.2338 40.9444C16.3689 40.4102 17.5544 39.9899 18.7727 39.6897C20.2286 39.2789 21.7153 38.8513 22.9723 38.0605L23.0087 38.0354C24.0082 37.4096 24.8099 36.5145 25.3213 35.4533C26.5056 33.0249 25.8813 30.2081 25.2261 28.0257C25.2215 28.0104 25.2139 27.9962 25.2037 27.9838C25.8701 26.3686 25.6853 24.6305 25.5985 24.0492C28.5438 21.7494 30.1649 18.6559 30.1649 15.3278ZM29.535 15.3278C29.5343 16.2319 29.4052 17.1313 29.1514 17.9992C28.7038 17.0883 28.1277 16.246 27.4407 15.4982C26.1669 14.101 23.9131 12.3768 20.2566 11.7006C22.6553 10.7863 25.1359 10.1023 27.6647 9.65785C28.8649 11.3071 29.5187 13.2894 29.535 15.3278ZM27.2476 9.09617C23.9609 9.68673 20.7624 10.6905 17.7284 12.0834C17.5324 10.499 16.8269 9.25265 15.8918 8.79716C15.9226 8.68538 15.9478 8.57919 15.973 8.473C18.7547 7.54031 21.6288 6.90886 24.5458 6.58955C25.5628 7.29067 26.4728 8.13495 27.2476 9.09617ZM23.5827 29.2664L23.4147 29.4145C22.8149 29.8829 22.1094 30.1976 21.3597 30.3311H21.3233H21.2645H21.2477C19.6826 30.6105 17.6556 30.401 15.189 29.6772H15.1555H15.0323H15.0071C13.8836 30.0199 12.7308 30.2584 11.5634 30.3898H11.513C9.32639 30.6022 7.68013 30.2165 6.59663 29.2273C5.33954 28.1319 5.10436 26.4133 5.10436 25.2508C5.63671 26.2512 6.43116 27.0886 7.40296 27.6736C9.01281 28.6237 11.0426 28.7914 13.442 28.2073C13.5971 28.5047 13.8312 28.7537 14.1185 28.9272C14.4059 29.1007 14.7356 29.1919 15.0715 29.191C15.407 29.1921 15.7363 29.1008 16.0233 28.9273C16.3102 28.7538 16.5437 28.5047 16.6981 28.2073C19.0975 28.8025 21.1301 28.6237 22.7372 27.6736C23.7103 27.0902 24.5052 26.2524 25.0358 25.2508C25.0582 26.4133 24.823 28.1319 23.5827 29.2664ZM22.1828 37.8258C21.0968 38.3616 19.9551 38.7767 18.7783 39.0637C18.2415 38.5554 17.7805 37.9729 17.4093 37.334C16.8493 36.3308 17.1293 35.227 17.5464 34.1818C17.6164 34.003 17.7004 33.8102 17.79 33.609C18.1316 32.8349 18.5403 31.9016 18.4004 31.0381C18.8593 31.0934 19.3211 31.1223 19.7834 31.1247C20.2475 31.1263 20.7109 31.0908 21.1693 31.0185C21.3457 31.5159 21.0937 32.371 20.8669 33.1395C20.6742 33.6699 20.5582 34.2251 20.5226 34.7882C20.5219 35.3929 20.6735 35.988 20.9637 36.5188C21.2538 37.0496 21.673 37.4991 22.1828 37.8258ZM15.0911 40.3408C14.6375 40.0055 13.0668 38.7116 12.7645 36.5962C12.4845 34.6737 13.3104 32.5834 15.1974 30.3786C16.0307 30.6166 16.8778 30.8033 17.734 30.9375C17.958 31.6473 17.5632 32.5443 17.2133 33.3407C17.1209 33.5531 17.0341 33.7543 16.9613 33.9415C16.4993 35.1292 16.1662 36.3978 16.8605 37.6302C17.2 38.2177 17.6109 38.7612 18.084 39.2482C17.0544 39.5215 16.0518 39.8871 15.0883 40.3408H15.0911ZM22.4236 27.1426C20.9173 28.0313 18.9631 28.1654 16.6281 27.545C16.587 27.5315 16.5435 27.5266 16.5003 27.5306C16.4572 27.5347 16.4153 27.5476 16.3774 27.5686C16.3396 27.5896 16.3065 27.6182 16.2802 27.6527C16.254 27.6871 16.2351 27.7266 16.225 27.7686C16.1423 28.0033 15.9884 28.2063 15.7846 28.3496C15.5809 28.4928 15.3375 28.5691 15.0883 28.5678C14.837 28.5697 14.5916 28.4924 14.3869 28.3469C14.1823 28.2014 14.029 27.9951 13.9488 27.7574C13.9381 27.717 13.9192 27.6793 13.8931 27.6466C13.8671 27.6139 13.8346 27.5869 13.7976 27.5674C13.7575 27.546 13.7136 27.5329 13.6683 27.5291C13.623 27.5252 13.5775 27.5307 13.5344 27.545C11.205 28.1626 9.25919 28.0285 7.75012 27.1426C6.56844 26.4144 5.68511 25.2901 5.25835 23.971C5.51313 23.4568 6.76182 21.1206 9.56716 18.4044C9.86673 18.2312 13.6744 16.1521 20.615 18.4212C23.4007 21.1234 24.6718 23.4847 24.921 23.9738C24.4887 25.2894 23.6027 26.4094 22.4208 27.1343L22.4236 27.1426ZM13.0276 12.9804C13.0276 11.3792 13.6128 9.97082 14.4079 9.45385C14.4944 9.39261 14.5885 9.34282 14.6879 9.30575C14.7867 9.26857 14.8905 9.24598 14.9959 9.23868H15.1135C15.2205 9.24117 15.3264 9.26098 15.427 9.29737C15.5257 9.33 15.6198 9.37508 15.707 9.4315C16.4153 9.87023 16.9641 11.0132 17.0901 12.374C17.1119 12.5754 17.1221 12.7779 17.1209 12.9804C17.1209 13.014 17.1209 13.0503 17.1209 13.0866C17.1161 13.6059 17.0445 14.1224 16.9081 14.6236C16.8485 14.8317 16.7765 15.036 16.6925 15.2355C16.3146 16.1326 15.7238 16.7222 15.0687 16.7222C14.4135 16.7222 13.8228 16.1354 13.4448 15.2383C13.3544 15.0302 13.2804 14.8153 13.2236 14.5956C13.086 14.0684 13.02 13.5252 13.0276 12.9804ZM13.6912 16.7362C12.744 16.7788 11.8047 16.9288 10.8914 17.1833C11.4934 16.6719 12.1681 16.1437 12.9129 15.6128C13.1003 16.0322 13.3642 16.4131 13.6912 16.7362ZM16.3761 16.8256C16.7476 16.4873 17.0425 16.0738 17.2413 15.6128C18.0812 16.2192 18.8595 16.8368 19.5539 17.4432C18.5119 17.1569 17.4496 16.9505 16.3761 16.8256ZM16.1158 7.75763C16.3613 6.64215 16.5241 5.51013 16.6029 4.37077C17.1629 4.26179 17.7368 4.15839 18.3276 4.06338C20.2203 4.40487 22.0368 5.08053 23.6919 6.05861C21.1188 6.38688 18.5822 6.95571 16.1158 7.75763ZM14.6011 1.12084C14.7044 0.918789 14.8651 0.751611 15.0631 0.640191C15.2603 0.752519 15.4208 0.919457 15.525 1.12084C15.7322 1.47014 15.945 2.09051 15.9898 3.16078C15.9898 3.35639 15.9898 3.56597 15.9898 3.79232V3.85659C15.9898 4.06059 15.973 4.27296 15.959 4.5077C15.8575 5.68222 15.6704 6.8478 15.399 7.99516C15.3542 8.19915 15.3094 8.40594 15.259 8.62111C15.1942 8.611 15.1287 8.60633 15.0631 8.60714C14.9863 8.60845 14.9096 8.61405 14.8335 8.6239C14.8027 8.49257 14.7691 8.36402 14.7411 8.23269C14.4836 7.142 14.2965 6.03591 14.1811 4.92127C14.1587 4.69772 14.1419 4.48534 14.1335 4.28414C14.1251 4.08294 14.1167 3.94881 14.1139 3.79232C14.1139 3.56597 14.1139 3.35639 14.1139 3.16357C14.1811 2.09051 14.3967 1.47014 14.6011 1.12084ZM13.5036 3.83703C13.5036 4.02985 13.5176 4.23384 13.5316 4.44342C7.78652 6.00272 4.23084 8.30534 2.42221 9.75286C4.63961 6.54205 8.72444 4.2562 13.5036 3.83703ZM1.44509 11.505C1.66627 11.2674 2.90936 9.982 5.36474 8.51771C7.93814 7.01237 10.703 5.86001 13.5848 5.09173C13.713 6.22768 13.9093 7.35493 14.1727 8.46742C11.0649 9.65609 8.19556 11.3909 5.70071 13.5896C3.18094 15.8699 1.89865 17.9937 1.3807 19.0164C0.8781 17.8265 0.624784 16.5465 0.63634 15.2552C0.647895 13.9639 0.92408 12.6886 1.4479 11.5078L1.44509 11.505ZM1.72507 19.7542C2.11703 18.8711 4.92518 13.1341 13.5064 9.41473C12.8317 10.2028 12.4005 11.491 12.4005 12.9776C12.3939 13.6529 12.4882 14.3254 12.6805 14.9729C7.69693 18.4771 5.42633 22.2691 4.80199 23.4456C3.53038 22.4413 2.48166 21.1842 1.72227 19.7542H1.72507ZM5.36474 28.7578C5.5878 29.1148 5.85703 29.4408 6.16547 29.7275C6.68926 30.2003 7.30901 30.5549 7.9825 30.767C7.32343 30.9752 6.71771 31.3243 6.20747 31.7898C5.58413 32.3888 5.15089 33.1575 4.96158 34.0002C4.54442 32.2732 4.88879 30.3898 5.35074 28.7578H5.36474ZM5.42633 35.2661C5.60552 31.0409 9.56716 31.1052 9.74074 31.1108C9.77031 31.1118 9.79979 31.107 9.82753 31.0968C10.0375 31.0968 10.2531 31.1136 10.4715 31.0968C9.1724 32.1195 8.38567 33.3044 8.13369 34.6317C7.92929 35.8278 8.11065 37.0578 8.65165 38.1444C7.30777 37.5715 6.15427 36.7415 5.41234 35.2661H5.42633ZM9.58396 38.5104C9.35158 38.1555 8.41087 36.5795 8.76363 34.7547C9.04361 33.3379 10.0151 32.0888 11.6698 31.0409C12.5315 30.9484 13.385 30.7914 14.2231 30.5714C12.5685 32.7036 11.8657 34.7631 12.1457 36.6857C12.317 37.8029 12.7958 38.8506 13.5288 39.712C12.8709 39.4829 12.1989 39.2929 11.5382 39.1056C10.8774 38.9184 10.2027 38.7284 9.58396 38.5104ZM22.8072 37.4402C22.3118 37.1893 21.8957 36.8063 21.6051 36.3337C21.3145 35.8612 21.1608 35.3175 21.1609 34.7631C21.2014 34.266 21.3078 33.7764 21.4773 33.3072C21.7349 32.4465 21.9952 31.5607 21.8021 30.8844C22.3219 30.7582 22.8201 30.5558 23.2803 30.2836C23.2803 32.6952 24.6102 33.7319 25.1645 34.0617C25.07 34.4559 24.9339 34.839 24.7586 35.2046C24.3173 36.1121 23.6393 36.8843 22.796 37.4402H22.8072ZM25.2961 33.391C24.7502 32.9914 23.7871 31.9714 23.9327 29.8057L24.0223 29.7275C24.3203 29.4545 24.5811 29.1435 24.7978 28.8025C25.1841 30.2165 25.5005 31.8373 25.2849 33.391H25.2961ZM25.3661 23.454C24.753 22.2971 22.4908 18.519 17.482 15.0008C17.6845 14.3466 17.7846 13.6651 17.7788 12.9804C17.7788 12.9134 17.7788 12.8435 17.7788 12.7792C18.2184 12.5669 18.6719 12.3601 19.1395 12.1673C23.2187 12.6535 25.6461 14.4615 26.9648 15.9006C27.7763 16.7675 28.4174 17.779 28.8546 18.8823C28.1012 20.6811 26.8958 22.2557 25.3549 23.454H25.3661Z" fill="#3F4E65"/>
<path d="M10.8995 22.3555C9.96714 22.3555 9.13281 22.7635 8.81924 23.3726C8.78194 23.4469 8.77542 23.5327 8.80109 23.6117C8.82677 23.6907 8.88258 23.7564 8.95643 23.7946C9.00084 23.8165 9.04968 23.828 9.09922 23.8281C9.1571 23.8283 9.2139 23.8124 9.26331 23.7823C9.31273 23.7523 9.35283 23.7091 9.37919 23.6577C9.58357 23.2609 10.2191 22.9814 10.8995 22.9814C11.5798 22.9814 12.2153 23.2609 12.4225 23.6577C12.4412 23.6944 12.467 23.7272 12.4984 23.754C12.5297 23.7807 12.5661 23.8011 12.6054 23.8138C12.6447 23.8265 12.6861 23.8314 12.7273 23.8281C12.7684 23.8248 12.8085 23.8134 12.8453 23.7946C12.9199 23.7564 12.9762 23.6902 13.0019 23.6106C13.0277 23.5309 13.0207 23.4443 12.9825 23.3698C12.6633 22.7634 11.8234 22.3555 10.8995 22.3555Z" fill="#3F4E65"/>
<path d="M19.2622 22.3555C18.3299 22.3555 17.4928 22.7635 17.182 23.3726C17.1628 23.4092 17.1511 23.4493 17.1476 23.4905C17.1441 23.5317 17.1489 23.5731 17.1617 23.6124C17.1744 23.6517 17.195 23.6881 17.222 23.7194C17.2491 23.7507 17.2821 23.7762 17.3192 23.7946C17.3636 23.8165 17.4125 23.828 17.462 23.8281C17.5199 23.8283 17.5767 23.8124 17.6261 23.7823C17.6755 23.7523 17.7156 23.7091 17.742 23.6577C17.9464 23.2609 18.5819 22.9814 19.2622 22.9814C19.9426 22.9814 20.5781 23.2609 20.7853 23.6577C20.804 23.6944 20.8298 23.7272 20.8611 23.754C20.8925 23.7807 20.9289 23.8011 20.9682 23.8138C21.0075 23.8265 21.0489 23.8314 21.09 23.8281C21.1312 23.8248 21.1713 23.8134 21.2081 23.7946C21.2821 23.7558 21.338 23.6896 21.3636 23.6102C21.3893 23.5308 21.3827 23.4445 21.3453 23.3698C21.0289 22.7634 20.1918 22.3555 19.2622 22.3555Z" fill="#3F4E65"/>
<path d="M39.7145 18.0632C41.7611 18.0632 43.9785 19.181 44.3592 21.8106H41.8759C41.5231 20.8102 40.7728 20.3575 39.7145 20.3575C38.2334 20.3575 37.2591 21.4752 37.2591 23.1044C37.2591 24.5575 38.2194 25.8234 39.7145 25.8401C40.7896 25.8401 41.6491 25.3036 41.9179 24.2473H44.4012C44.0345 27.0418 41.8199 28.1344 39.7145 28.1344C37.1947 28.1484 34.6609 26.4577 34.6469 23.1044C34.6329 19.7511 37.2031 18.0632 39.7145 18.0632Z" fill="#3F4E65"/>
<path d="M48.3544 27.7655L49.8998 24.5854L46.5765 18.5439V18.1638H49.3987L51.2633 21.7966H51.3333L53.0272 18.1638H55.7793V18.5439L51.0785 28.045H48.3544V27.7655Z" fill="#3F4E65"/>
<path d="M58.8871 28.0449H56.4149V27.6789L60.8609 18.0576H61.9388L66.4184 27.6705V28.0449H63.9462L61.4069 22.2688L58.8871 28.0449Z" fill="#3F4E65"/>
<path d="M67.569 20.4302V18.175H74.9071V20.4302H72.4937V28.045H69.9964V20.4302H67.569Z" fill="#3F4E65"/>
<path d="M83.0097 26.7958H79.1152L78.5357 28.0449H76.0663V27.6789L80.5123 18.0576H81.5986L86.0586 27.6789V28.0449H83.5892L83.0097 26.7958ZM81.0498 22.0453L79.9299 24.6385H82.1893L81.0498 22.0453Z" fill="#3F4E65"/>
<path d="M97 28.045H94.4158V24.0769H91.3669V28.045H88.7855V18.175H91.3669V21.7519H94.4158V18.175H97V28.045Z" fill="#3F4E65"/>
</g>
<defs>
<clipPath id="clip0_144_4982">
<rect width="97" height="41" fill="white"/>
</clipPath>
</defs>
</svg>
