<svg width="39" height="39" viewBox="0 0 39 39" fill="none" xmlns="http://www.w3.org/2000/svg">
<rect width="39" height="39" rx="19.5" fill="#00E676"/>
<path d="M27.6784 11.3568C25.5476 9.18112 22.6022 8 19.594 8C13.2017 8 8.06271 13.1594 8.12533 19.4378C8.12533 21.427 8.68936 23.3541 9.62947 25.0946L8 31L14.079 29.4459C15.7711 30.3784 17.6511 30.8136 19.5314 30.8136C25.861 30.8136 31 25.654 31 19.3758C31 16.3298 29.8092 13.4703 27.6785 11.3568H27.6784ZM19.594 28.8866C17.9019 28.8866 16.2098 28.4515 14.7684 27.5812L14.3924 27.3947L10.7575 28.3271L11.6976 24.7839L11.4469 24.4109C8.68936 19.9974 10.0055 14.154 14.5177 11.4189C19.0299 8.68377 24.8583 9.98921 27.6158 14.4649C30.3733 18.9405 29.0572 24.7216 24.545 27.4568C23.1035 28.3892 21.3488 28.8865 19.594 28.8865V28.8866ZM25.1089 21.9866L24.4196 21.6758C24.4196 21.6758 23.4169 21.2407 22.7902 20.9298C22.7275 20.9298 22.6649 20.8676 22.6022 20.8676C22.4141 20.8676 22.2888 20.9298 22.1635 20.992C22.1635 20.992 22.1008 21.0541 21.2234 22.0488C21.1607 22.1731 21.0354 22.2353 20.9101 22.2353H20.8474C20.7847 22.2353 20.6594 22.1731 20.5967 22.111L20.2833 21.9866C19.594 21.6758 18.9673 21.3028 18.4659 20.8055C18.3406 20.6812 18.1525 20.5569 18.0272 20.4326C17.5885 19.9974 17.1498 19.5001 16.8365 18.9406L16.7738 18.8163C16.7112 18.7541 16.7112 18.692 16.6485 18.5677C16.6485 18.4434 16.6485 18.3191 16.7112 18.2569C16.7112 18.2569 16.9619 17.946 17.1498 17.7596C17.2752 17.6352 17.3379 17.4488 17.4632 17.3245C17.5885 17.1379 17.6512 16.8893 17.5885 16.7028C17.5259 16.392 16.7738 14.7136 16.5859 14.3406C16.4605 14.1541 16.3352 14.092 16.1472 14.0298H15.4578C15.3324 14.0298 15.2072 14.092 15.0817 14.092L15.019 14.1541C14.8937 14.2163 14.7684 14.3406 14.643 14.4028C14.5177 14.5272 14.455 14.6514 14.3297 14.7758C13.891 15.3353 13.6403 16.019 13.6403 16.7028C13.6403 17.2001 13.7656 17.6974 13.9537 18.1325L14.0164 18.3191C14.5804 19.5001 15.3324 20.5569 16.3352 21.4893L16.5859 21.7379C16.7738 21.9244 16.9619 22.0488 17.0872 22.2352C18.4033 23.3542 19.9073 24.1623 21.5994 24.5974C21.7875 24.6595 22.0381 24.6595 22.2262 24.7217H22.8528C23.1662 24.7217 23.5422 24.5974 23.7929 24.4731C23.9809 24.3488 24.1062 24.3488 24.2315 24.2245L24.357 24.1001C24.4823 23.9758 24.6076 23.9136 24.733 23.7893C24.8583 23.665 24.9836 23.5407 25.0463 23.4163C25.1717 23.1677 25.2343 22.8568 25.297 22.5461V22.111C25.297 22.111 25.2343 22.0488 25.1089 21.9866Z" fill="white"/>
</svg>
